<svg xmlns="http://www.w3.org/2000/svg" width="1200" height="760" viewBox="0 0 1200 760"><defs><linearGradient id="g" x1="0" y1="0" x2="1" y2="1"><stop stop-color="#052e16"/><stop offset="1" stop-color="#16a34a"/></linearGradient></defs><rect width="1200" height="760" rx="38" fill="url(#g)"/><text x="70" y="110" fill="#dcfce7" font-family="Arial" font-size="28">AI GROCERY E-COMMERCE</text><text x="70" y="175" fill="white" font-family="Arial" font-size="68" font-weight="800">GreenCart</text><text x="70" y="220" fill="#bbf7d0" font-family="Arial" font-size="24">Gemini-powered product discovery</text><rect x="70" y="285" width="510" height="300" rx="28" fill="#f8fafc"/><rect x="100" y="315" width="450" height="54" rx="14" fill="#dcfce7"/><text x="125" y="350" fill="#166534" font-family="Arial" font-size="21">healthy breakfast</text><rect x="100" y="395" width="205" height="145" rx="18" fill="#fff" stroke="#bbf7d0"/><circle cx="160" cy="448" r="38" fill="#fbbf24"/><text x="118" y="510" fill="#0f172a" font-family="Arial" font-size="18" font-weight="700">Fresh groceries</text><rect x="330" y="395" width="205" height="145" rx="18" fill="#fff" stroke="#bbf7d0"/><circle cx="390" cy="448" r="38" fill="#4ade80"/><text x="355" y="510" fill="#0f172a" font-family="Arial" font-size="18" font-weight="700">AI suggestions</text><rect x="690" y="185" width="410" height="390" rx="30" fill="#fff"/><rect x="690" y="185" width="410" height="68" rx="30" fill="#15803d"/><text x="725" y="227" fill="white" font-family="Arial" font-size="20" font-weight="700">GreenCart AI</text><rect x="725" y="280" width="300" height="56" rx="18" fill="#dcfce7"/><text x="745" y="315" fill="#166534" font-family="Arial" font-size="17">Find healthy snacks</text><rect x="725" y="360" width="335" height="72" rx="18" fill="#f8fafc" stroke="#d1fae5"/><text x="750" y="402" fill="#111827" font-family="Arial" font-size="17" font-weight="700">Brown Rice</text><text x="950" y="402" fill="#16a34a" font-family="Arial" font-size="16">₹120</text><rect x="725" y="445" width="335" height="72" rx="18" fill="#f8fafc" stroke="#d1fae5"/><text x="750" y="487" fill="#111827" font-family="Arial" font-size="17" font-weight="700">Fresh Milk</text><text x="950" y="487" fill="#16a34a" font-family="Arial" font-size="16">₹45</text><text x="70" y="675" fill="#bbf7d0" font-family="Arial" font-size="18">React • Express • MongoDB • Gemini AI • Stripe • Cloudinary</text></svg>